# xmcd
#
# Track frame offsets: 
#        150
#        20158
#        38291
#        54088
#        74549
#        97115
#        118062
#        136026
#        154236
#        175309
#        195854
#        219380
#        240540
#        258098
#
# Disc length: 3660 seconds
#
# Revision: 3
# Processed by: cddbd v1.5.1PL0 Copyright (c) Steve Scherf et al.
# Submitted via: ExactAudioCopy v0.95b3
#
DISCID=b50e4a0e
DTITLE=Amy Sky - Cool Rain
DYEAR=1996
DGENRE=Country
TTITLE0=Don't Leave Me Alone
TTITLE1=If My Heart Had Wings
TTITLE2=Til You Love Somebody
TTITLE3=I Will Take Care Of You
TTITLE4=Wall Against The Waters
TTITLE5=Cool Rain
TTITLE6=Colorado
TTITLE7=Everything
TTITLE8=Run Away
TTITLE9=Unbreakable Heart
TTITLE10=Soledad
TTITLE11=Til Tomorrow
TTITLE12=Easy Terms
TTITLE13=Tell Me It's Not True
EXTD=
EXTT0=
EXTT1=
EXTT2=
EXTT3=
EXTT4=
EXTT5=
EXTT6=
EXTT7=
EXTT8=
EXTT9=
EXTT10=
EXTT11=
EXTT12=1998
EXTT13=1998
PLAYORDER=
